<?xml version="1.0" encoding="UTF-8" standalone="no"?>
<svg
   xmlns:dc="http://purl.org/dc/elements/1.1/"
   xmlns:cc="http://creativecommons.org/ns#"
   xmlns:rdf="http://www.w3.org/1999/02/22-rdf-syntax-ns#"
   xmlns:svg="http://www.w3.org/2000/svg"
   xmlns="http://www.w3.org/2000/svg"
   viewBox="0 0 100 100"
   height="100"
   width="100"
   xml:space="preserve"
   id="svg2"
   version="1.1"><metadata
     id="metadata8"><rdf:RDF><cc:Work
         rdf:about=""><dc:format>image/svg+xml</dc:format><dc:type
           rdf:resource="http://purl.org/dc/dcmitype/StillImage" /><dc:title></dc:title></cc:Work></rdf:RDF></metadata><defs
     id="defs6"><clipPath
       id="clipPath18"
       clipPathUnits="userSpaceOnUse"><path
         id="path16"
         d="M 0,442.089 H 364.087 V 0 H 0 Z" /></clipPath></defs><g
     transform="matrix(1.3333333,0,0,-1.3333333,0,99.999974)"
     id="g10"><g
       transform="matrix(0.3282854,0,0,0.3282854,-23.727333,-54.747618)"
       id="g1248"><g
         id="g56"
         transform="translate(193.5449,199.6803)"><path
           d="M 0,0 -1.324,0.391 C -1.856,0.548 -2.722,0.531 -3.248,0.353 L -9.64,-1.814 c -0.526,-0.178 -1.365,-0.125 -1.864,0.118 l -8.618,4.193 c -0.5,0.243 -1.353,0.347 -1.895,0.23 l -9.782,-2.102 c -0.543,-0.117 -1.026,-0.665 -1.073,-1.218 l -1.604,-18.84 9.79,3.897 c 0.174,0.069 0.363,0.092 0.548,0.065 l 23.645,-3.42 -0.001,-0.008 0.36,-0.036 1.043,17.641 C 0.942,-0.739 0.533,-0.157 0,0"
           style="fill:#7b8b98;fill-opacity:1;fill-rule:nonzero;stroke:none"
           id="path58" /></g><g
         id="g60"
         transform="translate(162.0463,177.5199)"><path
           d="m 0,0 19.258,-2.506 c 0.55,-0.072 1.42,0.045 1.933,0.258 L 29.585,1.253 7.51,3.433 Z"
           style="fill:#7b8b98;fill-opacity:1;fill-rule:nonzero;stroke:none"
           id="path62" /></g><g
         id="g64"
         transform="translate(215.6121,337.2028)"><path
           d="m 0,0 h -51.445 c -0.406,-1.598 -1.522,-2.931 -3.014,-3.619 l 5.523,-45.535 c 0.647,-0.037 1.265,-0.187 1.836,-0.435 L 2.522,-5.512 C 1.151,-4.029 0.236,-2.119 0,0"
           style="fill:#7b8b98;fill-opacity:1;fill-rule:nonzero;stroke:none"
           id="path66" /></g><g
         id="g68"
         transform="translate(225.2703,343.7161)"><path
           d="m 0,0 c -0.137,0 -0.276,-0.005 -0.415,-0.015 -1.45,-0.109 -2.771,-0.776 -3.72,-1.878 -0.949,-1.102 -1.412,-2.508 -1.303,-3.958 0.222,-2.962 2.825,-5.233 5.836,-5.024 2.994,0.225 5.247,2.843 5.023,5.837 C 5.21,-2.213 2.828,0 0,0"
           style="fill:#7b8b98;fill-opacity:1;fill-rule:nonzero;stroke:none"
           id="path70" /></g><g
         id="g72"
         transform="translate(239.6053,375.5827)"><path
           d="m 0,0 c 0.803,0.06 1.539,-0.272 2.04,-0.826 l 2.691,1.285 c -9.458,4.817 -22.02,8.831 -38.609,11.435 -0.009,-0.037 -0.015,-0.074 -0.024,-0.11 L -1.778,-0.955 C -1.358,-0.422 -0.73,-0.055 0,0"
           style="fill:#7b8b98;fill-opacity:1;fill-rule:nonzero;stroke:none"
           id="path74" /></g><g
         id="g76"
         transform="translate(130.7735,271.6375)"><path
           d="m 0,0 c -0.101,1.35 0.588,2.566 1.667,3.23 l -9.772,40.187 c -0.481,0.035 -0.936,0.165 -1.347,0.378 L -16.14,37.151 C -13.634,23.408 -8.237,10.278 -1.626,-1.87 l 1.734,1.261 C 0.057,-0.412 0.016,-0.21 0,0"
           style="fill:#7b8b98;fill-opacity:1;fill-rule:nonzero;stroke:none"
           id="path78" /></g><g
         id="g80"
         transform="translate(119.4349,318.2691)"><path
           d="m 0,0 c -0.113,1.511 0.758,2.857 2.065,3.443 l -4.537,41.425 c -0.235,0.051 -0.459,0.131 -0.677,0.223 C -4.982,41.247 -6.026,37.366 -6.505,33.732 -8.021,22.221 -7.543,7.995 -5.238,-6.9 v -10e-4 l 5.61,5.573 C 0.167,-0.926 0.036,-0.478 0,0"
           style="fill:#7b8b98;fill-opacity:1;fill-rule:nonzero;stroke:none"
           id="path82" /></g><g
         id="g84"
         transform="translate(241.5484,371.3068)"><path
           d="m 0,0 c -0.409,-0.405 -0.95,-0.68 -1.569,-0.726 -0.157,-0.012 -0.312,-0.005 -0.463,0.012 l -9.961,-23.619 c 1.64,-0.818 3.027,-2.084 3.987,-3.647 l 29.561,14.506 c -0.073,0.224 -0.129,0.456 -0.147,0.702 -0.026,0.341 0.02,0.668 0.103,0.982 z"
           style="fill:#7b8b98;fill-opacity:1;fill-rule:nonzero;stroke:none"
           id="path86" /></g><g
         id="g88"
         transform="translate(166.1078,285.9172)"><path
           d="m 0,0 c -1.83,-0.137 -3.208,-1.738 -3.071,-3.568 0.136,-1.811 1.73,-3.201 3.568,-3.071 1.83,0.138 3.208,1.738 3.071,3.568 C 3.439,-1.343 1.982,0.01 0.253,0.01 0.169,0.01 0.085,0.006 0,0"
           style="fill:#7b8b98;fill-opacity:1;fill-rule:nonzero;stroke:none"
           id="path90" /></g><g
         id="g92"
         transform="translate(134.0417,273.6095)"><path
           d="m 0,0 c -0.937,-0.07 -1.642,-0.889 -1.572,-1.826 0.07,-0.927 0.886,-1.638 1.826,-1.571 0.937,0.07 1.642,0.889 1.572,1.825 C 1.76,-0.688 1.015,0.005 0.129,0.005 0.087,0.005 0.043,0.003 0,0"
           style="fill:#7b8b98;fill-opacity:1;fill-rule:nonzero;stroke:none"
           id="path94" /></g><g
         id="g96"
         transform="translate(122.9145,320.3172)"><path
           d="m 0,0 c -0.937,-0.07 -1.642,-0.889 -1.572,-1.826 0.07,-0.927 0.886,-1.638 1.826,-1.571 0.937,0.07 1.642,0.889 1.572,1.825 C 1.76,-0.688 1.015,0.005 0.129,0.005 0.087,0.005 0.043,0.003 0,0"
           style="fill:#7b8b98;fill-opacity:1;fill-rule:nonzero;stroke:none"
           id="path98" /></g><g
         id="g100"
         transform="translate(230.975,267.4422)"><path
           d="m 0,0 c -0.937,-0.07 -1.642,-0.889 -1.572,-1.826 0.07,-0.927 0.886,-1.638 1.826,-1.571 0.937,0.07 1.642,0.889 1.572,1.825 C 1.76,-0.688 1.015,0.005 0.129,0.005 0.087,0.005 0.043,0.003 0,0"
           style="fill:#7b8b98;fill-opacity:1;fill-rule:nonzero;stroke:none"
           id="path102" /></g><g
         id="g104"
         transform="translate(239.706,374.2122)"><path
           d="m 0,0 c -0.676,-0.051 -1.185,-0.642 -1.134,-1.318 0.05,-0.669 0.639,-1.183 1.318,-1.134 0.676,0.05 1.185,0.642 1.134,1.318 C 1.27,-0.496 0.732,0.004 0.093,0.004 0.062,0.004 0.031,0.002 0,0"
           style="fill:#7b8b98;fill-opacity:1;fill-rule:nonzero;stroke:none"
           id="path106" /></g><g
         id="g108"
         transform="translate(121.4845,365.6773)"><path
           d="m 0,0 33.472,-23.329 c 0.899,0.927 2.122,1.545 3.507,1.649 0.999,0.078 1.95,-0.126 2.788,-0.535 l 34.179,41.584 c -0.332,0.393 -0.614,0.829 -0.837,1.302 L 0.206,1.34 C 0.215,0.873 0.145,0.421 0,0"
           style="fill:#7b8b98;fill-opacity:1;fill-rule:nonzero;stroke:none"
           id="path110" /></g><g
         id="g112"
         transform="translate(158.8762,341.8752)"><path
           d="m 0,0 c -0.083,0 -0.168,-0.003 -0.253,-0.01 -1.83,-0.137 -3.208,-1.738 -3.071,-3.569 0.135,-1.811 1.73,-3.208 3.568,-3.071 1.831,0.137 3.209,1.738 3.072,3.568 C 3.187,-1.354 1.73,0 0,0"
           style="fill:#7b8b98;fill-opacity:1;fill-rule:nonzero;stroke:none"
           id="path114" /></g><g
         id="g116"
         transform="translate(162.6164,286.5775)"><path
           d="M 0,0 C 0.55,0.518 1.209,0.92 1.942,1.176 L -3.556,46.507 C -3.62,46.505 -3.685,46.5 -3.749,46.5 c -1.555,0 -2.972,0.668 -3.975,1.735 l -28.55,-15.628 c 0.025,-0.131 0.06,-0.258 0.07,-0.393 0.042,-0.559 -0.063,-1.091 -0.262,-1.577 z"
           style="fill:#7b8b98;fill-opacity:1;fill-rule:nonzero;stroke:none"
           id="path118" /></g><g
         id="g120"
         transform="translate(229.0521,268.905)"><path
           d="m 0,0 -4.841,59.708 c -1.115,0.121 -2.176,0.438 -3.152,0.911 L -57.897,16.293 c 0.36,-0.661 0.593,-1.401 0.652,-2.192 0.023,-0.304 0.013,-0.603 -0.013,-0.898 L -1.131,-1.165 C -0.847,-0.697 -0.459,-0.304 0,0"
           style="fill:#7b8b98;fill-opacity:1;fill-rule:nonzero;stroke:none"
           id="path122" /></g><g
         id="g124"
         transform="translate(121.0699,369.0642)"><path
           d="m 0,0 72.972,19.349 c -10e-4,0.007 -0.002,0.014 -0.003,0.021 -0.014,0.19 -0.017,0.378 -0.014,0.565 C 30.421,24.342 9.139,13.856 -0.77,0.861 -0.475,0.613 -0.212,0.326 0,0"
           style="fill:#7b8b98;fill-opacity:1;fill-rule:nonzero;stroke:none"
           id="path126" /></g><g
         id="g128"
         transform="translate(168.5583,221.4738)"><path
           d="m 0,0 -33.633,47.007 c -0.133,-0.025 -0.263,-0.06 -0.402,-0.071 -0.945,-0.071 -1.827,0.244 -2.5,0.807 l -1.836,-1.335 c 4.909,-8.782 10.415,-17.031 15.873,-24.6 C -14.406,10.589 -11.692,7.378 -2.603,-4.001 -1.982,-2.514 -1.105,-1.154 0,0"
           style="fill:#7b8b98;fill-opacity:1;fill-rule:nonzero;stroke:none"
           id="path130" /></g><g
         id="g132"
         transform="translate(242.2934,373.269)"><path
           d="m 0,0 c 0.018,-0.246 -0.011,-0.483 -0.06,-0.713 l 21.273,-11.66 C 17.296,-7.282 11.638,-2.371 3.62,1.947 L -0.035,0.201 C -0.025,0.133 -0.005,0.069 0,0"
           style="fill:#7b8b98;fill-opacity:1;fill-rule:nonzero;stroke:none"
           id="path134" /></g><g
         id="g136"
         transform="translate(234.9537,338.9963)"><path
           d="M 0,0 C 0.025,-0.33 0.032,-0.658 0.024,-0.982 L 32.86,-3.835 c 0.604,1.632 1.98,2.903 3.713,3.349 -0.185,5.433 -1.444,11.444 -4.74,17.398 -0.204,-0.061 -0.416,-0.105 -0.638,-0.122 -0.591,-0.044 -1.153,0.092 -1.638,0.356 L -0.503,2.396 C -0.242,1.634 -0.062,0.834 0,0"
           style="fill:#7b8b98;fill-opacity:1;fill-rule:nonzero;stroke:none"
           id="path138" /></g><g
         id="g140"
         transform="translate(229.3675,262.5523)"><path
           d="m 0,0 -41.356,-42.04 c 0.903,-1.146 1.61,-2.452 2.086,-3.865 8.264,7.759 10.582,9.653 21.991,19.278 3.622,3.056 12.294,11.064 21.395,20.637 L 1.99,-0.424 C 1.273,-0.476 0.593,-0.312 0,0"
           style="fill:#7b8b98;fill-opacity:1;fill-rule:nonzero;stroke:none"
           id="path142" /></g><g
         id="g144"
         transform="translate(234.7862,266.1026)"><path
           d="M 0,0 C 0.097,-1.29 -0.481,-2.473 -1.433,-3.209 L 0.326,-7.815 C 10.808,3.369 21.495,16.35 25.417,26.038 30.308,38.12 33.843,50.045 35.673,60.514 L -0.862,2.099 C -0.38,1.525 -0.06,0.805 0,0"
           style="fill:#7b8b98;fill-opacity:1;fill-rule:nonzero;stroke:none"
           id="path146" /></g><g
         id="g148"
         transform="translate(227.8421,264.0491)"><path
           d="m 0,0 c -0.247,0.45 -0.411,0.955 -0.451,1.5 -0.003,0.041 0.004,0.079 0.003,0.119 l -56.207,14.389 c -0.565,-1.071 -1.476,-1.936 -2.596,-2.441 l 8.787,-52.175 c 3.506,0.138 6.75,-1.158 9.169,-3.369 z"
           style="fill:#7b8b98;fill-opacity:1;fill-rule:nonzero;stroke:none"
           id="path150" /></g><g
         id="g152"
         transform="translate(173.8705,224.8179)"><path
           d="m 0,0 -8.838,52.484 c -1.471,0.371 -2.716,1.343 -3.446,2.647 l -23.841,-8.008 c 0.011,-0.929 -0.338,-1.784 -0.934,-2.422 L -3.704,-1.918 C -2.596,-1.091 -1.35,-0.44 0,0"
           style="fill:#7b8b98;fill-opacity:1;fill-rule:nonzero;stroke:none"
           id="path154" /></g><g
         id="g156"
         transform="translate(124.7453,315.5611)"><path
           d="m 0,0 9.771,-40.187 c 1.039,-0.076 1.961,-0.601 2.555,-1.405 l 23.86,8.014 c -0.008,0.069 -0.02,0.137 -0.025,0.206 -0.071,0.939 0.102,1.841 0.463,2.644 L 0.029,0.019 C 0.019,0.013 0.01,0.006 0,0"
           style="fill:#7b8b98;fill-opacity:1;fill-rule:nonzero;stroke:none"
           id="path158" /></g><g
         id="g160"
         transform="translate(186.4046,213.7744)"><path
           d="m 0,0 c -0.601,4.202 -4.236,7.417 -8.529,7.417 -0.217,0 -0.436,-0.008 -0.656,-0.024 -4.132,-0.31 -7.372,-3.496 -7.91,-7.447 0.948,0.422 4.378,1.831 8.113,1.882 C -5.375,1.876 -1.332,0.496 0,0"
           style="fill:#7b8b98;fill-opacity:1;fill-rule:nonzero;stroke:none"
           id="path162" /></g><g
         id="g164"
         transform="translate(125.3215,321.0611)"><path
           d="m 0,0 28.434,15.565 c -0.18,0.475 -0.295,0.982 -0.335,1.51 -0.064,0.852 0.078,1.671 0.375,2.417 L -5.061,42.864 c -0.342,-0.28 -0.734,-0.501 -1.162,-0.652 L -1.696,0.881 C -1.05,0.748 -0.467,0.442 0,0"
           style="fill:#7b8b98;fill-opacity:1;fill-rule:nonzero;stroke:none"
           id="path166" /></g><g
         id="g168"
         transform="translate(269.4881,329.0943)"><path
           d="m 0,0 c -0.981,0.792 -1.687,1.92 -1.925,3.229 l -33.083,2.874 c -1.022,-3.052 -3.53,-5.463 -6.718,-6.312 l 4.774,-58.873 z"
           style="fill:#7b8b98;fill-opacity:1;fill-rule:nonzero;stroke:none"
           id="path170" /></g><g
         id="g172"
         transform="translate(118.2188,366.891)"><path
           d="m 0,0 c -0.355,-0.628 -0.723,-1.322 -1.074,-2.01 0.224,-0.061 0.459,-0.094 0.703,-0.076 1.16,0.087 2.033,1.1 1.946,2.26 C 1.536,0.699 1.299,1.167 0.946,1.514 0.615,1.026 0.292,0.516 0,0"
           style="fill:#7b8b98;fill-opacity:1;fill-rule:nonzero;stroke:none"
           id="path174" /></g><g
         id="g176"
         transform="translate(200.1875,388.3081)"><path
           d="m 0,0 c -0.569,0.081 -1.456,0.183 -2.506,0.294 -0.046,-0.217 -0.073,-0.44 -0.056,-0.671 0.097,-1.302 1.243,-2.305 2.563,-2.207 1.212,0.091 2.137,1.077 2.199,2.259 C 1.433,-0.209 0.673,-0.096 0,0"
           style="fill:#7b8b98;fill-opacity:1;fill-rule:nonzero;stroke:none"
           id="path178" /></g><g
         id="g180"
         transform="translate(265.2812,358.5425)"><path
           d="M 0,0 C -0.115,0.204 -0.262,0.426 -0.418,0.651 -0.684,0.419 -0.854,0.084 -0.826,-0.294 -0.779,-0.924 -0.224,-1.41 0.415,-1.362 0.524,-1.354 0.62,-1.313 0.718,-1.277 0.447,-0.795 0.188,-0.333 0,0"
           style="fill:#7b8b98;fill-opacity:1;fill-rule:nonzero;stroke:none"
           id="path182" /></g><g
         id="g184"
         transform="translate(271.2972,330.936)"><path
           d="M 0,0 C 0.106,0.722 0.188,1.398 0.23,1.966 0.289,2.776 0.314,3.601 0.319,4.375 -0.708,4.055 -1.422,3.062 -1.339,1.944 -1.274,1.08 -0.737,0.358 0,0"
           style="fill:#7b8b98;fill-opacity:1;fill-rule:nonzero;stroke:none"
           id="path186" /></g><g
         id="g188"
         transform="translate(164.2749,339.34)"><path
           d="m 0,0 h 51.329 c 0.21,1.936 0.994,3.763 2.291,5.271 0.413,0.479 1.351,1.353 1.922,1.697 L 37.377,43.843 c -0.325,-0.095 -1.087,-0.217 -1.246,-0.229 -1.202,-0.09 -2.346,0.187 -3.327,0.733 L -1.322,2.827 C -0.632,2.05 -0.159,1.077 0,0"
           style="fill:#7b8b98;fill-opacity:1;fill-rule:nonzero;stroke:none"
           id="path190" /></g><g
         id="g192"
         transform="translate(224.5363,347.9627)"><path
           d="m 0,0 c 1.292,0.1 2.541,-0.067 3.702,-0.445 l 9.965,23.63 c -0.511,0.42 -0.859,1.036 -0.912,1.747 -0.01,0.139 -0.001,0.274 0.011,0.408 l -32.124,12.74 c -0.171,-0.314 -0.979,-1.453 -1.354,-1.75 L -2.306,-0.561 C -1.822,-0.349 -0.487,-0.036 0,0"
           style="fill:#7b8b98;fill-opacity:1;fill-rule:nonzero;stroke:none"
           id="path194" /></g></g></g></svg>