<?xml version="1.0" encoding="UTF-8" standalone="no"?><svg xmlns="http://www.w3.org/2000/svg" xmlns:xlink="http://www.w3.org/1999/xlink" contentScriptType="application/ecmascript" contentStyleType="text/css" height="826px" preserveAspectRatio="none" style="width:693px;height:826px;" version="1.1" viewBox="0 0 693 826" width="693px" zoomAndPan="magnify"><defs><filter height="300%" id="fa59gjmmvk93x" width="300%" x="-1" y="-1"><feGaussianBlur result="blurOut" stdDeviation="2.0"/><feColorMatrix in="blurOut" result="blurOut2" type="matrix" values="0 0 0 0 0 0 0 0 0 0 0 0 0 0 0 0 0 0 .4 0"/><feOffset dx="4.0" dy="4.0" in="blurOut2" result="blurOut3"/><feBlend in="SourceGraphic" in2="blurOut3" mode="normal"/></filter></defs><g><text fill="#000000" font-family="sans-serif" font-size="14" font-weight="bold" lengthAdjust="spacingAndGlyphs" textLength="226" x="234.5" y="22.9951">basic operation of a component</text><rect fill="#FFFFFF" filter="url(#fa59gjmmvk93x)" height="113.3984" style="stroke: #A80036; stroke-width: 1.0;" width="10" x="224" y="235.2578"/><line style="stroke: #A80036; stroke-width: 1.0;" x1="68" x2="68" y1="116.5938" y2="461.0547"/><line style="stroke: #A80036; stroke-width: 1.0; stroke-dasharray: 1.0,4.0;" x1="68" x2="68" y1="461.0547" y2="489.0547"/><line style="stroke: #A80036; stroke-width: 1.0;" x1="68" x2="68" y1="489.0547" y2="738.8516"/><line style="stroke: #A80036; stroke-width: 1.0;" x1="229" x2="229" y1="116.5938" y2="461.0547"/><line style="stroke: #A80036; stroke-width: 1.0; stroke-dasharray: 1.0,4.0;" x1="229" x2="229" y1="461.0547" y2="489.0547"/><line style="stroke: #A80036; stroke-width: 1.0;" x1="229" x2="229" y1="489.0547" y2="738.8516"/><line style="stroke: #A80036; stroke-width: 1.0;" x1="412.5" x2="412.5" y1="116.5938" y2="461.0547"/><line style="stroke: #A80036; stroke-width: 1.0; stroke-dasharray: 1.0,4.0;" x1="412.5" x2="412.5" y1="461.0547" y2="489.0547"/><line style="stroke: #A80036; stroke-width: 1.0;" x1="412.5" x2="412.5" y1="489.0547" y2="738.8516"/><line style="stroke: #A80036; stroke-width: 1.0;" x1="541" x2="541" y1="116.5938" y2="461.0547"/><line style="stroke: #A80036; stroke-width: 1.0; stroke-dasharray: 1.0,4.0;" x1="541" x2="541" y1="461.0547" y2="489.0547"/><line style="stroke: #A80036; stroke-width: 1.0;" x1="541" x2="541" y1="489.0547" y2="738.8516"/><line style="stroke: #A80036; stroke-width: 1.0;" x1="665" x2="665" y1="116.5938" y2="461.0547"/><line style="stroke: #A80036; stroke-width: 1.0; stroke-dasharray: 1.0,4.0;" x1="665" x2="665" y1="461.0547" y2="489.0547"/><line style="stroke: #A80036; stroke-width: 1.0;" x1="665" x2="665" y1="489.0547" y2="738.8516"/><rect fill="#FEFECE" filter="url(#fa59gjmmvk93x)" height="30.2969" style="stroke: #A80036; stroke-width: 1.5;" width="116" x="8" y="81.2969"/><text fill="#000000" font-family="sans-serif" font-size="14" lengthAdjust="spacingAndGlyphs" textLength="102" x="15" y="101.292">InitComponent</text><rect fill="#FEFECE" filter="url(#fa59gjmmvk93x)" height="30.2969" style="stroke: #A80036; stroke-width: 1.5;" width="116" x="8" y="737.8516"/><text fill="#000000" font-family="sans-serif" font-size="14" lengthAdjust="spacingAndGlyphs" textLength="102" x="15" y="757.8467">InitComponent</text><rect fill="#FEFECE" filter="url(#fa59gjmmvk93x)" height="30.2969" style="stroke: #A80036; stroke-width: 1.5;" width="96" x="179" y="81.2969"/><text fill="#000000" font-family="sans-serif" font-size="14" lengthAdjust="spacingAndGlyphs" textLength="82" x="186" y="101.292">Component</text><rect fill="#FEFECE" filter="url(#fa59gjmmvk93x)" height="30.2969" style="stroke: #A80036; stroke-width: 1.5;" width="96" x="179" y="737.8516"/><text fill="#000000" font-family="sans-serif" font-size="14" lengthAdjust="spacingAndGlyphs" textLength="82" x="186" y="757.8467">Component</text><rect fill="#FEFECE" filter="url(#fa59gjmmvk93x)" height="30.2969" style="stroke: #A80036; stroke-width: 1.5;" width="113" x="354.5" y="81.2969"/><text fill="#000000" font-family="sans-serif" font-size="14" lengthAdjust="spacingAndGlyphs" textLength="99" x="361.5" y="101.292">ViewContainer</text><rect fill="#FEFECE" filter="url(#fa59gjmmvk93x)" height="30.2969" style="stroke: #A80036; stroke-width: 1.5;" width="113" x="354.5" y="737.8516"/><text fill="#000000" font-family="sans-serif" font-size="14" lengthAdjust="spacingAndGlyphs" textLength="99" x="361.5" y="757.8467">ViewContainer</text><rect fill="#FEFECE" filter="url(#fa59gjmmvk93x)" height="30.2969" style="stroke: #A80036; stroke-width: 1.5;" width="46" x="516" y="81.2969"/><text fill="#000000" font-family="sans-serif" font-size="14" lengthAdjust="spacingAndGlyphs" textLength="32" x="523" y="101.292">View</text><rect fill="#FEFECE" filter="url(#fa59gjmmvk93x)" height="30.2969" style="stroke: #A80036; stroke-width: 1.5;" width="46" x="516" y="737.8516"/><text fill="#000000" font-family="sans-serif" font-size="14" lengthAdjust="spacingAndGlyphs" textLength="32" x="523" y="757.8467">View</text><text fill="#000000" font-family="sans-serif" font-size="14" lengthAdjust="spacingAndGlyphs" textLength="38" x="643" y="113.292">USER</text><ellipse cx="665" cy="43.2969" fill="#FEFECE" filter="url(#fa59gjmmvk93x)" rx="8" ry="8" style="stroke: #A80036; stroke-width: 2.0;"/><path d="M665,51.2969 L665,78.2969 M652,59.2969 L678,59.2969 M665,78.2969 L652,93.2969 M665,78.2969 L678,93.2969 " fill="none" filter="url(#fa59gjmmvk93x)" style="stroke: #A80036; stroke-width: 2.0;"/><text fill="#000000" font-family="sans-serif" font-size="14" lengthAdjust="spacingAndGlyphs" textLength="38" x="643" y="750.8467">USER</text><ellipse cx="665" cy="764.1484" fill="#FEFECE" filter="url(#fa59gjmmvk93x)" rx="8" ry="8" style="stroke: #A80036; stroke-width: 2.0;"/><path d="M665,772.1484 L665,799.1484 M652,780.1484 L678,780.1484 M665,799.1484 L652,814.1484 M665,799.1484 L678,814.1484 " fill="none" filter="url(#fa59gjmmvk93x)" style="stroke: #A80036; stroke-width: 2.0;"/><rect fill="#FFFFFF" filter="url(#fa59gjmmvk93x)" height="113.3984" style="stroke: #A80036; stroke-width: 1.0;" width="10" x="224" y="235.2578"/><line style="stroke: #A80036; stroke-width: 1.0;" x1="68" x2="110" y1="162.8594" y2="162.8594"/><line style="stroke: #A80036; stroke-width: 1.0;" x1="110" x2="110" y1="162.8594" y2="175.8594"/><line style="stroke: #A80036; stroke-width: 1.0;" x1="69" x2="110" y1="175.8594" y2="175.8594"/><polygon fill="#A80036" points="79,171.8594,69,175.8594,79,179.8594,75,175.8594" style="stroke: #A80036; stroke-width: 1.0;"/><text fill="#000000" font-family="sans-serif" font-size="13" font-weight="bold" lengthAdjust="spacingAndGlyphs" textLength="8" x="75" y="150.2271">1</text><text fill="#000000" font-family="sans-serif" font-size="13" lengthAdjust="spacingAndGlyphs" textLength="70" x="87" y="142.6606">create new</text><text fill="#000000" font-family="sans-serif" font-size="13" lengthAdjust="spacingAndGlyphs" textLength="125" x="87" y="157.7935">ComponentContext</text><polygon fill="#A80036" points="212,231.2578,222,235.2578,212,239.2578,216,235.2578" style="stroke: #A80036; stroke-width: 1.0;"/><line style="stroke: #A80036; stroke-width: 1.0;" x1="68" x2="218" y1="235.2578" y2="235.2578"/><text fill="#000000" font-family="sans-serif" font-size="13" font-weight="bold" lengthAdjust="spacingAndGlyphs" textLength="8" x="75" y="215.0591">2</text><text fill="#000000" font-family="sans-serif" font-size="13" lengthAdjust="spacingAndGlyphs" textLength="80" x="87" y="199.9263">initialize with</text><text fill="#000000" font-family="sans-serif" font-size="13" lengthAdjust="spacingAndGlyphs" textLength="125" x="87" y="215.0591">ComponentContext</text><text fill="#000000" font-family="sans-serif" font-size="13" lengthAdjust="spacingAndGlyphs" textLength="104" x="87" y="230.1919">and parentNode</text><line style="stroke: #A80036; stroke-width: 1.0;" x1="234" x2="276" y1="264.3906" y2="264.3906"/><line style="stroke: #A80036; stroke-width: 1.0;" x1="276" x2="276" y1="264.3906" y2="277.3906"/><line style="stroke: #A80036; stroke-width: 1.0;" x1="235" x2="276" y1="277.3906" y2="277.3906"/><polygon fill="#A80036" points="245,273.3906,235,277.3906,245,281.3906,241,277.3906" style="stroke: #A80036; stroke-width: 1.0;"/><text fill="#000000" font-family="sans-serif" font-size="13" font-weight="bold" lengthAdjust="spacingAndGlyphs" textLength="8" x="241" y="259.3247">3</text><text fill="#000000" font-family="sans-serif" font-size="13" lengthAdjust="spacingAndGlyphs" textLength="63" x="253" y="259.3247">init stores</text><line style="stroke: #A80036; stroke-width: 1.0;" x1="234" x2="276" y1="306.5234" y2="306.5234"/><line style="stroke: #A80036; stroke-width: 1.0;" x1="276" x2="276" y1="306.5234" y2="319.5234"/><line style="stroke: #A80036; stroke-width: 1.0;" x1="235" x2="276" y1="319.5234" y2="319.5234"/><polygon fill="#A80036" points="245,315.5234,235,319.5234,245,323.5234,241,319.5234" style="stroke: #A80036; stroke-width: 1.0;"/><text fill="#000000" font-family="sans-serif" font-size="13" font-weight="bold" lengthAdjust="spacingAndGlyphs" textLength="8" x="241" y="301.4575">4</text><text fill="#000000" font-family="sans-serif" font-size="13" lengthAdjust="spacingAndGlyphs" textLength="132" x="253" y="301.4575">init Listeners Actions</text><polygon fill="#A80036" points="401,344.6563,411,348.6563,401,352.6563,405,348.6563" style="stroke: #A80036; stroke-width: 1.0;"/><line style="stroke: #A80036; stroke-width: 1.0;" x1="229" x2="407" y1="348.6563" y2="348.6563"/><text fill="#000000" font-family="sans-serif" font-size="13" font-weight="bold" lengthAdjust="spacingAndGlyphs" textLength="8" x="236" y="343.5903">5</text><text fill="#000000" font-family="sans-serif" font-size="13" lengthAdjust="spacingAndGlyphs" textLength="51" x="248" y="343.5903">initialize</text><polygon fill="#A80036" points="529,373.7891,539,377.7891,529,381.7891,533,377.7891" style="stroke: #A80036; stroke-width: 1.0;"/><line style="stroke: #A80036; stroke-width: 1.0;" x1="413" x2="535" y1="377.7891" y2="377.7891"/><text fill="#000000" font-family="sans-serif" font-size="13" font-weight="bold" lengthAdjust="spacingAndGlyphs" textLength="8" x="420" y="372.7231">6</text><text fill="#000000" font-family="sans-serif" font-size="13" lengthAdjust="spacingAndGlyphs" textLength="73" x="432" y="372.7231">mount view</text><line style="stroke: #A80036; stroke-width: 1.0;" x1="541" x2="583" y1="406.9219" y2="406.9219"/><line style="stroke: #A80036; stroke-width: 1.0;" x1="583" x2="583" y1="406.9219" y2="419.9219"/><line style="stroke: #A80036; stroke-width: 1.0;" x1="542" x2="583" y1="419.9219" y2="419.9219"/><polygon fill="#A80036" points="552,415.9219,542,419.9219,552,423.9219,548,419.9219" style="stroke: #A80036; stroke-width: 1.0;"/><text fill="#000000" font-family="sans-serif" font-size="13" font-weight="bold" lengthAdjust="spacingAndGlyphs" textLength="8" x="548" y="401.856">7</text><text fill="#000000" font-family="sans-serif" font-size="13" lengthAdjust="spacingAndGlyphs" textLength="42" x="560" y="401.856">render</text><polygon fill="#FBFB77" filter="url(#fa59gjmmvk93x)" points="216,432.9219,242,432.9219,252,443.9219,242,455.9219,216,455.9219,206,443.9219,216,432.9219" style="stroke: #A80036; stroke-width: 1.0;"/><text fill="#000000" font-family="sans-serif" font-size="13" lengthAdjust="spacingAndGlyphs" textLength="22" x="218" y="448.9888">idle</text><polygon fill="#A80036" points="552,506.1875,542,510.1875,552,514.1875,548,510.1875" style="stroke: #A80036; stroke-width: 1.0;"/><line style="stroke: #A80036; stroke-width: 1.0;" x1="546" x2="664" y1="510.1875" y2="510.1875"/><text fill="#000000" font-family="sans-serif" font-size="13" font-weight="bold" lengthAdjust="spacingAndGlyphs" textLength="8" x="558" y="505.1216">8</text><text fill="#000000" font-family="sans-serif" font-size="13" lengthAdjust="spacingAndGlyphs" textLength="88" x="570" y="505.1216">doSomeThing</text><line style="stroke: #A80036; stroke-width: 1.0;" x1="541" x2="583" y1="539.3203" y2="539.3203"/><line style="stroke: #A80036; stroke-width: 1.0;" x1="583" x2="583" y1="539.3203" y2="552.3203"/><line style="stroke: #A80036; stroke-width: 1.0;" x1="542" x2="583" y1="552.3203" y2="552.3203"/><polygon fill="#A80036" points="552,548.3203,542,552.3203,552,556.3203,548,552.3203" style="stroke: #A80036; stroke-width: 1.0;"/><text fill="#000000" font-family="sans-serif" font-size="13" font-weight="bold" lengthAdjust="spacingAndGlyphs" textLength="8" x="548" y="534.2544">9</text><text fill="#000000" font-family="sans-serif" font-size="13" lengthAdjust="spacingAndGlyphs" textLength="90" x="560" y="534.2544">dispatchEvent</text><line style="stroke: #A80036; stroke-width: 1.0;" x1="413" x2="455" y1="581.4531" y2="581.4531"/><line style="stroke: #A80036; stroke-width: 1.0;" x1="455" x2="455" y1="581.4531" y2="594.4531"/><line style="stroke: #A80036; stroke-width: 1.0;" x1="414" x2="455" y1="594.4531" y2="594.4531"/><polygon fill="#A80036" points="424,590.4531,414,594.4531,424,598.4531,420,594.4531" style="stroke: #A80036; stroke-width: 1.0;"/><text fill="#000000" font-family="sans-serif" font-size="13" font-weight="bold" lengthAdjust="spacingAndGlyphs" textLength="16" x="420" y="576.3872">10</text><text fill="#000000" font-family="sans-serif" font-size="13" lengthAdjust="spacingAndGlyphs" textLength="94" x="440" y="576.3872">dispatchAction</text><line style="stroke: #A80036; stroke-width: 1.0;" x1="229" x2="271" y1="623.5859" y2="623.5859"/><line style="stroke: #A80036; stroke-width: 1.0;" x1="271" x2="271" y1="623.5859" y2="636.5859"/><line style="stroke: #A80036; stroke-width: 1.0;" x1="230" x2="271" y1="636.5859" y2="636.5859"/><polygon fill="#A80036" points="240,632.5859,230,636.5859,240,640.5859,236,636.5859" style="stroke: #A80036; stroke-width: 1.0;"/><text fill="#000000" font-family="sans-serif" font-size="13" font-weight="bold" lengthAdjust="spacingAndGlyphs" textLength="16" x="236" y="618.52">11</text><text fill="#000000" font-family="sans-serif" font-size="13" lengthAdjust="spacingAndGlyphs" textLength="150" x="256" y="618.52">execute Action callback</text><line style="stroke: #A80036; stroke-width: 1.0;" x1="229" x2="271" y1="665.7188" y2="665.7188"/><line style="stroke: #A80036; stroke-width: 1.0;" x1="271" x2="271" y1="665.7188" y2="678.7188"/><line style="stroke: #A80036; stroke-width: 1.0;" x1="230" x2="271" y1="678.7188" y2="678.7188"/><polygon fill="#A80036" points="240,674.7188,230,678.7188,240,682.7188,236,678.7188" style="stroke: #A80036; stroke-width: 1.0;"/><text fill="#000000" font-family="sans-serif" font-size="13" font-weight="bold" lengthAdjust="spacingAndGlyphs" textLength="16" x="236" y="660.6528">12</text><text fill="#000000" font-family="sans-serif" font-size="13" lengthAdjust="spacingAndGlyphs" textLength="82" x="256" y="660.6528">update store</text><line style="stroke: #A80036; stroke-width: 1.0;" x1="541" x2="583" y1="707.8516" y2="707.8516"/><line style="stroke: #A80036; stroke-width: 1.0;" x1="583" x2="583" y1="707.8516" y2="720.8516"/><line style="stroke: #A80036; stroke-width: 1.0;" x1="542" x2="583" y1="720.8516" y2="720.8516"/><polygon fill="#A80036" points="552,716.8516,542,720.8516,552,724.8516,548,720.8516" style="stroke: #A80036; stroke-width: 1.0;"/><text fill="#000000" font-family="sans-serif" font-size="13" font-weight="bold" lengthAdjust="spacingAndGlyphs" textLength="16" x="548" y="702.7856">13</text><text fill="#000000" font-family="sans-serif" font-size="13" lengthAdjust="spacingAndGlyphs" textLength="42" x="568" y="702.7856">render</text><!--
@startuml

participant InitComponent
participant Component
participant ViewContainer
participant View
Actor USER

title basic operation of a component

autonumber
InitComponent -> InitComponent : create new\nComponentContext
InitComponent->Component : initialize with\nComponentContext\nand parentNode
activate Component
Component -> Component : init storesBuilder
Component -> Component : init Listeners Actions
Component -> ViewContainer : initialize
deactivate Component
ViewContainer -> View : mount views
View -> View : render
hnote over Component : idle
......
USER -> View : doSomeThing
View -> View : dispatchEvent
ViewContainer -> ViewContainer : dispatchAction
Component -> Component : execute Action callback
Component -> Component : update store
View -> View : render
@enduml

PlantUML version 1.2018.11(Sat Sep 22 18:43:53 CEST 2018)
(GPL source distribution)
Java Runtime: OpenJDK Runtime Environment
JVM: OpenJDK 64-Bit Server VM
Java Version: 1.8.0_152-release-1343-b28
Operating System: Linux
OS Version: 4.18.0-15-generic
Default Encoding: UTF-8
Language: fr
Country: FR
--></g></svg>
