<?xml version="1.0" encoding="UTF-8" standalone="no"?><svg xmlns="http://www.w3.org/2000/svg" xmlns:xlink="http://www.w3.org/1999/xlink" contentScriptType="application/ecmascript" contentStyleType="text/css" height="846px" preserveAspectRatio="none" style="width:901px;height:846px;" version="1.1" viewBox="0 0 901 846" width="901px" zoomAndPan="magnify"><defs><filter height="300%" id="f15yq9voqj916h" width="300%" x="-1" y="-1"><feGaussianBlur result="blurOut" stdDeviation="2.0"/><feColorMatrix in="blurOut" result="blurOut2" type="matrix" values="0 0 0 0 0 0 0 0 0 0 0 0 0 0 0 0 0 0 .4 0"/><feOffset dx="4.0" dy="4.0" in="blurOut2" result="blurOut3"/><feBlend in="SourceGraphic" in2="blurOut3" mode="normal"/></filter></defs><g><text fill="#000000" font-family="sans-serif" font-size="14" font-weight="bold" lengthAdjust="spacingAndGlyphs" textLength="145" x="379.25" y="22.9951">basic use of a router</text><line style="stroke: #A80036; stroke-width: 1.0;" x1="81" x2="81" y1="116.5938" y2="435.0547"/><line style="stroke: #A80036; stroke-width: 1.0; stroke-dasharray: 1.0,4.0;" x1="81" x2="81" y1="435.0547" y2="463.0547"/><line style="stroke: #A80036; stroke-width: 1.0;" x1="81" x2="81" y1="463.0547" y2="759.25"/><line style="stroke: #A80036; stroke-width: 1.0;" x1="276" x2="276" y1="116.5938" y2="435.0547"/><line style="stroke: #A80036; stroke-width: 1.0; stroke-dasharray: 1.0,4.0;" x1="276" x2="276" y1="435.0547" y2="463.0547"/><line style="stroke: #A80036; stroke-width: 1.0;" x1="276" x2="276" y1="463.0547" y2="759.25"/><line style="stroke: #A80036; stroke-width: 1.0;" x1="436" x2="436" y1="116.5938" y2="435.0547"/><line style="stroke: #A80036; stroke-width: 1.0; stroke-dasharray: 1.0,4.0;" x1="436" x2="436" y1="435.0547" y2="463.0547"/><line style="stroke: #A80036; stroke-width: 1.0;" x1="436" x2="436" y1="463.0547" y2="759.25"/><line style="stroke: #A80036; stroke-width: 1.0;" x1="611.5" x2="611.5" y1="116.5938" y2="435.0547"/><line style="stroke: #A80036; stroke-width: 1.0; stroke-dasharray: 1.0,4.0;" x1="611.5" x2="611.5" y1="435.0547" y2="463.0547"/><line style="stroke: #A80036; stroke-width: 1.0;" x1="611.5" x2="611.5" y1="463.0547" y2="759.25"/><line style="stroke: #A80036; stroke-width: 1.0;" x1="764.5" x2="764.5" y1="116.5938" y2="435.0547"/><line style="stroke: #A80036; stroke-width: 1.0; stroke-dasharray: 1.0,4.0;" x1="764.5" x2="764.5" y1="435.0547" y2="463.0547"/><line style="stroke: #A80036; stroke-width: 1.0;" x1="764.5" x2="764.5" y1="463.0547" y2="759.25"/><line style="stroke: #A80036; stroke-width: 1.0;" x1="873.5" x2="873.5" y1="116.5938" y2="435.0547"/><line style="stroke: #A80036; stroke-width: 1.0; stroke-dasharray: 1.0,4.0;" x1="873.5" x2="873.5" y1="435.0547" y2="463.0547"/><line style="stroke: #A80036; stroke-width: 1.0;" x1="873.5" x2="873.5" y1="463.0547" y2="759.25"/><rect fill="#FEFECE" filter="url(#f15yq9voqj916h)" height="30.2969" style="stroke: #A80036; stroke-width: 1.5;" width="143" x="8" y="81.2969"/><text fill="#000000" font-family="sans-serif" font-size="14" lengthAdjust="spacingAndGlyphs" textLength="129" x="15" y="101.292">ComponentRouter</text><rect fill="#FEFECE" filter="url(#f15yq9voqj916h)" height="30.2969" style="stroke: #A80036; stroke-width: 1.5;" width="143" x="8" y="758.25"/><text fill="#000000" font-family="sans-serif" font-size="14" lengthAdjust="spacingAndGlyphs" textLength="129" x="15" y="778.2451">ComponentRouter</text><rect fill="#FEFECE" filter="url(#f15yq9voqj916h)" height="30.2969" style="stroke: #A80036; stroke-width: 1.5;" width="119" x="215" y="81.2969"/><text fill="#000000" font-family="sans-serif" font-size="14" lengthAdjust="spacingAndGlyphs" textLength="105" x="222" y="101.292">MainCompoent</text><rect fill="#FEFECE" filter="url(#f15yq9voqj916h)" height="30.2969" style="stroke: #A80036; stroke-width: 1.5;" width="119" x="215" y="758.25"/><text fill="#000000" font-family="sans-serif" font-size="14" lengthAdjust="spacingAndGlyphs" textLength="105" x="222" y="778.2451">MainCompoent</text><rect fill="#FEFECE" filter="url(#f15yq9voqj916h)" height="30.2969" style="stroke: #A80036; stroke-width: 1.5;" width="89" x="390" y="81.2969"/><text fill="#000000" font-family="sans-serif" font-size="14" lengthAdjust="spacingAndGlyphs" textLength="75" x="397" y="101.292">Switchman</text><rect fill="#FEFECE" filter="url(#f15yq9voqj916h)" height="30.2969" style="stroke: #A80036; stroke-width: 1.5;" width="89" x="390" y="758.25"/><text fill="#000000" font-family="sans-serif" font-size="14" lengthAdjust="spacingAndGlyphs" textLength="75" x="397" y="778.2451">Switchman</text><rect fill="#FEFECE" filter="url(#f15yq9voqj916h)" height="30.2969" style="stroke: #A80036; stroke-width: 1.5;" width="130" x="544.5" y="81.2969"/><text fill="#000000" font-family="sans-serif" font-size="14" lengthAdjust="spacingAndGlyphs" textLength="116" x="551.5" y="101.292">InitialComponent</text><rect fill="#FEFECE" filter="url(#f15yq9voqj916h)" height="30.2969" style="stroke: #A80036; stroke-width: 1.5;" width="130" x="544.5" y="758.25"/><text fill="#000000" font-family="sans-serif" font-size="14" lengthAdjust="spacingAndGlyphs" textLength="116" x="551.5" y="778.2451">InitialComponent</text><rect fill="#FEFECE" filter="url(#f15yq9voqj916h)" height="30.2969" style="stroke: #A80036; stroke-width: 1.5;" width="149" x="688.5" y="81.2969"/><text fill="#000000" font-family="sans-serif" font-size="14" lengthAdjust="spacingAndGlyphs" textLength="135" x="695.5" y="101.292">SecondComponent</text><rect fill="#FEFECE" filter="url(#f15yq9voqj916h)" height="30.2969" style="stroke: #A80036; stroke-width: 1.5;" width="149" x="688.5" y="758.25"/><text fill="#000000" font-family="sans-serif" font-size="14" lengthAdjust="spacingAndGlyphs" textLength="135" x="695.5" y="778.2451">SecondComponent</text><text fill="#000000" font-family="sans-serif" font-size="14" lengthAdjust="spacingAndGlyphs" textLength="38" x="851.5" y="113.292">USER</text><ellipse cx="873.5" cy="43.2969" fill="#FEFECE" filter="url(#f15yq9voqj916h)" rx="8" ry="8" style="stroke: #A80036; stroke-width: 2.0;"/><path d="M873.5,51.2969 L873.5,78.2969 M860.5,59.2969 L886.5,59.2969 M873.5,78.2969 L860.5,93.2969 M873.5,78.2969 L886.5,93.2969 " fill="none" filter="url(#f15yq9voqj916h)" style="stroke: #A80036; stroke-width: 2.0;"/><text fill="#000000" font-family="sans-serif" font-size="14" lengthAdjust="spacingAndGlyphs" textLength="38" x="851.5" y="771.2451">USER</text><ellipse cx="873.5" cy="784.5469" fill="#FEFECE" filter="url(#f15yq9voqj916h)" rx="8" ry="8" style="stroke: #A80036; stroke-width: 2.0;"/><path d="M873.5,792.5469 L873.5,819.5469 M860.5,800.5469 L886.5,800.5469 M873.5,819.5469 L860.5,834.5469 M873.5,819.5469 L886.5,834.5469 " fill="none" filter="url(#f15yq9voqj916h)" style="stroke: #A80036; stroke-width: 2.0;"/><polygon fill="#A80036" points="92.5,143.7266,82.5,147.7266,92.5,151.7266,88.5,147.7266" style="stroke: #A80036; stroke-width: 1.0;"/><line style="stroke: #A80036; stroke-width: 1.0;" x1="86.5" x2="275.5" y1="147.7266" y2="147.7266"/><text fill="#000000" font-family="sans-serif" font-size="13" font-weight="bold" lengthAdjust="spacingAndGlyphs" textLength="8" x="98.5" y="142.6606">1</text><text fill="#000000" font-family="sans-serif" font-size="13" lengthAdjust="spacingAndGlyphs" textLength="70" x="110.5" y="142.6606">instanciate</text><line style="stroke: #A80036; stroke-width: 1.0;" x1="81.5" x2="123.5" y1="191.9922" y2="191.9922"/><line style="stroke: #A80036; stroke-width: 1.0;" x1="123.5" x2="123.5" y1="191.9922" y2="204.9922"/><line style="stroke: #A80036; stroke-width: 1.0;" x1="82.5" x2="123.5" y1="204.9922" y2="204.9922"/><polygon fill="#A80036" points="92.5,200.9922,82.5,204.9922,92.5,208.9922,88.5,204.9922" style="stroke: #A80036; stroke-width: 1.0;"/><text fill="#000000" font-family="sans-serif" font-size="13" font-weight="bold" lengthAdjust="spacingAndGlyphs" textLength="8" x="88.5" y="179.3599">2</text><text fill="#000000" font-family="sans-serif" font-size="13" lengthAdjust="spacingAndGlyphs" textLength="91" x="100.5" y="171.7935">init router with</text><text fill="#000000" font-family="sans-serif" font-size="13" lengthAdjust="spacingAndGlyphs" textLength="112" x="100.5" y="186.9263">URL configuration</text><line style="stroke: #A80036; stroke-width: 1.0;" x1="81.5" x2="123.5" y1="249.2578" y2="249.2578"/><line style="stroke: #A80036; stroke-width: 1.0;" x1="123.5" x2="123.5" y1="249.2578" y2="262.2578"/><line style="stroke: #A80036; stroke-width: 1.0;" x1="82.5" x2="123.5" y1="262.2578" y2="262.2578"/><polygon fill="#A80036" points="92.5,258.2578,82.5,262.2578,92.5,266.2578,88.5,262.2578" style="stroke: #A80036; stroke-width: 1.0;"/><text fill="#000000" font-family="sans-serif" font-size="13" font-weight="bold" lengthAdjust="spacingAndGlyphs" textLength="8" x="88.5" y="236.6255">3</text><text fill="#000000" font-family="sans-serif" font-size="13" lengthAdjust="spacingAndGlyphs" textLength="70" x="100.5" y="229.0591">init listener</text><text fill="#000000" font-family="sans-serif" font-size="13" lengthAdjust="spacingAndGlyphs" textLength="129" x="100.5" y="244.1919">Action change route</text><polygon fill="#A80036" points="264.5,287.3906,274.5,291.3906,264.5,295.3906,268.5,291.3906" style="stroke: #A80036; stroke-width: 1.0;"/><line style="stroke: #A80036; stroke-width: 1.0;" x1="81.5" x2="270.5" y1="291.3906" y2="291.3906"/><text fill="#000000" font-family="sans-serif" font-size="13" font-weight="bold" lengthAdjust="spacingAndGlyphs" textLength="8" x="88.5" y="286.3247">4</text><text fill="#000000" font-family="sans-serif" font-size="13" lengthAdjust="spacingAndGlyphs" textLength="159" x="100.5" y="286.3247">send PublicRouteHandler</text><polygon fill="#A80036" points="424.5,331.6563,434.5,335.6563,424.5,339.6563,428.5,335.6563" style="stroke: #A80036; stroke-width: 1.0;"/><line style="stroke: #A80036; stroke-width: 1.0;" x1="276.5" x2="430.5" y1="335.6563" y2="335.6563"/><text fill="#000000" font-family="sans-serif" font-size="13" font-weight="bold" lengthAdjust="spacingAndGlyphs" textLength="8" x="283.5" y="323.0239">5</text><text fill="#000000" font-family="sans-serif" font-size="13" lengthAdjust="spacingAndGlyphs" textLength="99" x="295.5" y="315.4575">instanciate with</text><text fill="#000000" font-family="sans-serif" font-size="13" lengthAdjust="spacingAndGlyphs" textLength="124" x="295.5" y="330.5903">PublicRouteHandler</text><polygon fill="#A80036" points="599.5,360.7891,609.5,364.7891,599.5,368.7891,603.5,364.7891" style="stroke: #A80036; stroke-width: 1.0;"/><line style="stroke: #A80036; stroke-width: 1.0;" x1="436.5" x2="605.5" y1="364.7891" y2="364.7891"/><text fill="#000000" font-family="sans-serif" font-size="13" font-weight="bold" lengthAdjust="spacingAndGlyphs" textLength="8" x="443.5" y="359.7231">6</text><text fill="#000000" font-family="sans-serif" font-size="13" lengthAdjust="spacingAndGlyphs" textLength="70" x="455.5" y="359.7231">instanciate</text><polygon fill="#A80036" points="92.5,389.9219,82.5,393.9219,92.5,397.9219,88.5,393.9219" style="stroke: #A80036; stroke-width: 1.0;"/><line style="stroke: #A80036; stroke-width: 1.0;" x1="86.5" x2="435.5" y1="393.9219" y2="393.9219"/><text fill="#000000" font-family="sans-serif" font-size="13" font-weight="bold" lengthAdjust="spacingAndGlyphs" textLength="8" x="98.5" y="388.856">7</text><text fill="#000000" font-family="sans-serif" font-size="13" lengthAdjust="spacingAndGlyphs" textLength="86" x="110.5" y="388.856">init new route</text><polygon fill="#FBFB77" filter="url(#f15yq9voqj916h)" points="423,406.9219,449,406.9219,459,417.9219,449,429.9219,423,429.9219,413,417.9219,423,406.9219" style="stroke: #A80036; stroke-width: 1.0;"/><text fill="#000000" font-family="sans-serif" font-size="13" lengthAdjust="spacingAndGlyphs" textLength="22" x="425" y="422.9888">idle</text><polygon fill="#A80036" points="447.5,480.1875,437.5,484.1875,447.5,488.1875,443.5,484.1875" style="stroke: #A80036; stroke-width: 1.0;"/><line style="stroke: #A80036; stroke-width: 1.0;" x1="441.5" x2="872.5" y1="484.1875" y2="484.1875"/><text fill="#000000" font-family="sans-serif" font-size="13" font-weight="bold" lengthAdjust="spacingAndGlyphs" textLength="8" x="453.5" y="479.1216">8</text><text fill="#000000" font-family="sans-serif" font-size="13" lengthAdjust="spacingAndGlyphs" textLength="282" x="465.5" y="479.1216">click action to change to SecondComponent</text><line style="stroke: #A80036; stroke-width: 1.0;" x1="436.5" x2="478.5" y1="528.4531" y2="528.4531"/><line style="stroke: #A80036; stroke-width: 1.0;" x1="478.5" x2="478.5" y1="528.4531" y2="541.4531"/><line style="stroke: #A80036; stroke-width: 1.0;" x1="437.5" x2="478.5" y1="541.4531" y2="541.4531"/><polygon fill="#A80036" points="447.5,537.4531,437.5,541.4531,447.5,545.4531,443.5,541.4531" style="stroke: #A80036; stroke-width: 1.0;"/><text fill="#000000" font-family="sans-serif" font-size="13" font-weight="bold" lengthAdjust="spacingAndGlyphs" textLength="8" x="443.5" y="515.8208">9</text><text fill="#000000" font-family="sans-serif" font-size="13" lengthAdjust="spacingAndGlyphs" textLength="148" x="455.5" y="508.2544">dispatch action change</text><text fill="#000000" font-family="sans-serif" font-size="13" lengthAdjust="spacingAndGlyphs" textLength="139" x="455.5" y="523.3872">route with URL format</text><line style="stroke: #A80036; stroke-width: 1.0;" x1="81.5" x2="123.5" y1="585.7188" y2="585.7188"/><line style="stroke: #A80036; stroke-width: 1.0;" x1="123.5" x2="123.5" y1="585.7188" y2="598.7188"/><line style="stroke: #A80036; stroke-width: 1.0;" x1="82.5" x2="123.5" y1="598.7188" y2="598.7188"/><polygon fill="#A80036" points="92.5,594.7188,82.5,598.7188,92.5,602.7188,88.5,598.7188" style="stroke: #A80036; stroke-width: 1.0;"/><text fill="#000000" font-family="sans-serif" font-size="13" font-weight="bold" lengthAdjust="spacingAndGlyphs" textLength="16" x="88.5" y="573.0864">10</text><text fill="#000000" font-family="sans-serif" font-size="13" lengthAdjust="spacingAndGlyphs" textLength="93" x="108.5" y="565.52">trigger listener</text><text fill="#000000" font-family="sans-serif" font-size="13" lengthAdjust="spacingAndGlyphs" textLength="128" x="108.5" y="580.6528">action change route</text><line style="stroke: #A80036; stroke-width: 1.0;" x1="81.5" x2="123.5" y1="627.8516" y2="627.8516"/><line style="stroke: #A80036; stroke-width: 1.0;" x1="123.5" x2="123.5" y1="627.8516" y2="640.8516"/><line style="stroke: #A80036; stroke-width: 1.0;" x1="82.5" x2="123.5" y1="640.8516" y2="640.8516"/><polygon fill="#A80036" points="92.5,636.8516,82.5,640.8516,92.5,644.8516,88.5,640.8516" style="stroke: #A80036; stroke-width: 1.0;"/><text fill="#000000" font-family="sans-serif" font-size="13" font-weight="bold" lengthAdjust="spacingAndGlyphs" textLength="16" x="88.5" y="622.7856">11</text><text fill="#000000" font-family="sans-serif" font-size="13" lengthAdjust="spacingAndGlyphs" textLength="84" x="108.5" y="622.7856">resolve route</text><polygon fill="#A80036" points="424.5,665.9844,434.5,669.9844,424.5,673.9844,428.5,669.9844" style="stroke: #A80036; stroke-width: 1.0;"/><line style="stroke: #A80036; stroke-width: 1.0;" x1="81.5" x2="430.5" y1="669.9844" y2="669.9844"/><text fill="#000000" font-family="sans-serif" font-size="13" font-weight="bold" lengthAdjust="spacingAndGlyphs" textLength="16" x="88.5" y="664.9185">12</text><text fill="#000000" font-family="sans-serif" font-size="13" lengthAdjust="spacingAndGlyphs" textLength="106" x="108.5" y="664.9185">execute callback</text><line style="stroke: #A80036; stroke-width: 1.0;" x1="436.5" x2="478.5" y1="699.1172" y2="699.1172"/><line style="stroke: #A80036; stroke-width: 1.0;" x1="478.5" x2="478.5" y1="699.1172" y2="712.1172"/><line style="stroke: #A80036; stroke-width: 1.0;" x1="437.5" x2="478.5" y1="712.1172" y2="712.1172"/><polygon fill="#A80036" points="447.5,708.1172,437.5,712.1172,447.5,716.1172,443.5,712.1172" style="stroke: #A80036; stroke-width: 1.0;"/><text fill="#000000" font-family="sans-serif" font-size="13" font-weight="bold" lengthAdjust="spacingAndGlyphs" textLength="16" x="443.5" y="694.0513">13</text><text fill="#000000" font-family="sans-serif" font-size="13" lengthAdjust="spacingAndGlyphs" textLength="141" x="463.5" y="694.0513">unplug InitComponent</text><polygon fill="#A80036" points="753,737.25,763,741.25,753,745.25,757,741.25" style="stroke: #A80036; stroke-width: 1.0;"/><line style="stroke: #A80036; stroke-width: 1.0;" x1="436.5" x2="759" y1="741.25" y2="741.25"/><text fill="#000000" font-family="sans-serif" font-size="13" font-weight="bold" lengthAdjust="spacingAndGlyphs" textLength="16" x="443.5" y="736.1841">14</text><text fill="#000000" font-family="sans-serif" font-size="13" lengthAdjust="spacingAndGlyphs" textLength="51" x="463.5" y="736.1841">initialize</text><!--
@startuml
participant ComponentRouter
participant MainCompoent
participant Switchman
participant InitialComponent
participant SecondComponent
Actor USER

title basic use of a __addRouter

autonumber
ComponentRouter<-MainCompoent : instanciate
ComponentRouter->ComponentRouter : init __addRouter with\nURL configuration
ComponentRouter->ComponentRouter : init listener\nAction change route
ComponentRouter->MainCompoent : send PublicRouteHandler
MainCompoent->Switchman : instanciate with\nPublicRouteHandler
Switchman -> InitialComponent : instanciate
ComponentRouter <- Switchman : init new route
hnote over Switchman : idle
......
Switchman <- USER: click action to change to SecondComponent
Switchman -> Switchman : dispatch action change\nroute with URL format
ComponentRouter->ComponentRouter : trigger listener\naction change route
ComponentRouter->ComponentRouter : resolve route
ComponentRouter->Switchman : execute callback
Switchman -> Switchman : unplug InitComponent
Switchman -> SecondComponent : initialize
@enduml

PlantUML version 1.2018.11(Sat Sep 22 18:43:53 CEST 2018)
(GPL source distribution)
Java Runtime: OpenJDK Runtime Environment
JVM: OpenJDK 64-Bit Server VM
Java Version: 1.8.0_152-release-1343-b28
Operating System: Linux
OS Version: 4.18.0-15-generic
Default Encoding: UTF-8
Language: fr
Country: FR
--></g></svg>
